<svg width="20" height="20" viewBox="0 0 20 20" fill="none" xmlns="http://www.w3.org/2000/svg">
<path fill-rule="evenodd" clip-rule="evenodd" d="M4.16168 8.60056e-07H15.8388C16.3659 -1.70213e-05 16.8205 -3.25181e-05 17.1949 0.0305751C17.5902 0.0628916 17.9831 0.134244 18.3614 0.326982C18.9248 0.614051 19.3851 1.07224 19.6732 1.63781C19.8659 2.016 19.9372 2.40906 19.9695 2.80397C20 3.17815 20 3.6323 20 4.15839V15.8421C20 16.3682 20 16.8222 19.9695 17.1962C19.9372 17.591 19.8659 17.9838 19.6732 18.3619C19.3854 18.9269 18.9254 19.3859 18.3614 19.6732C17.9833 19.8659 17.5905 19.9372 17.1957 19.9695C16.8217 20 16.3677 20 15.8416 20H4.15839C3.6323 20 3.17815 20 2.80397 19.9695C2.40906 19.9372 2.016 19.8659 1.63781 19.6732C1.07276 19.3853 0.614315 18.9258 0.326982 18.3619C0.134209 17.9835 0.0628795 17.5904 0.0305727 17.1951C-3.25181e-05 16.8206 -1.70213e-05 16.3659 8.60089e-07 15.8388V4.16168C-1.70213e-05 3.63451 -3.23988e-05 3.17965 0.0305692 2.80499C0.0628619 2.40962 0.134158 2.01625 0.326982 1.63781C0.614602 1.07332 1.07332 0.614602 1.63781 0.326982C2.01625 0.134158 2.40962 0.0628619 2.80499 0.0305692C3.17965 -3.23988e-05 3.63451 -1.70213e-05 4.16168 8.60056e-07ZM2.9678 2.02393C2.69595 2.04614 2.59517 2.08383 2.54579 2.109C2.35763 2.20487 2.20487 2.35763 2.109 2.54579C2.08383 2.59517 2.04614 2.69595 2.02393 2.9678C2.00078 3.25126 2 3.62365 2 4.2002V15.8002C2 16.3768 2.00078 16.7489 2.02393 17.0322C2.04612 17.3037 2.08378 17.4044 2.109 17.4539C2.20516 17.6426 2.35819 17.7956 2.54579 17.8912C2.595 17.9163 2.69554 17.9539 2.96686 17.9761C3.2498 17.9992 3.62146 18 4.19691 18H15.8031C16.3786 18 16.75 17.9992 17.0327 17.9761C17.3036 17.954 17.4041 17.9164 17.4534 17.8912C17.6421 17.7951 17.7956 17.6415 17.8912 17.4539C17.9164 17.4046 17.954 17.3041 17.9761 17.0332C17.9992 16.7505 18 16.379 18 15.8036V4.19691C18 3.62146 17.9992 3.2498 17.9761 2.96686C17.9539 2.69554 17.9163 2.59501 17.8912 2.54579C17.7959 2.35871 17.6427 2.20542 17.4534 2.109C17.4039 2.08375 17.3032 2.04611 17.0319 2.02393C16.7488 2.00078 16.3768 2 15.8002 2H4.2002C3.62365 2 3.25126 2.00078 2.9678 2.02393ZM14.6647 6.25259C15.0775 6.61951 15.1147 7.25158 14.7477 7.66437L9.4144 13.6644C9.22464 13.8778 8.95265 14 8.66702 14C8.3814 14 8.1094 13.8779 7.91963 13.6644L5.25263 10.6644C4.88569 10.2517 4.92283 9.61958 5.33559 9.25263C5.74835 8.88569 6.38043 8.92283 6.74737 9.33559L8.66695 11.4949L13.2529 6.33564C13.6198 5.92286 14.2519 5.88567 14.6647 6.25259Z" fill="#141318"/>
</svg>
