<svg width="30" height="30" viewBox="0 0 30 30" fill="none" xmlns="http://www.w3.org/2000/svg">
<path d="M19.0287 15C19.0208 14.7238 18.9182 14.487 18.7051 14.274L12.5653 8.26832C12.3838 8.0947 12.1707 8 11.9103 8C11.3816 8 10.9712 8.41037 10.9712 8.93912C10.9712 9.19166 11.0738 9.42841 11.2553 9.60992L16.7795 15L11.2553 20.3901C11.0738 20.5716 10.9712 20.8005 10.9712 21.0609C10.9712 21.5896 11.3816 22 11.9103 22C12.1628 22 12.3838 21.9053 12.5653 21.7317L18.7051 15.7182C18.9261 15.513 19.0287 15.2762 19.0287 15Z" fill="#303030"/>
</svg>
