<svg width="20" height="20" viewBox="0 0 20 20" fill="none" xmlns="http://www.w3.org/2000/svg">
<path fill-rule="evenodd" clip-rule="evenodd" d="M9.99984 4.16669C10.4601 4.16669 10.8332 4.53978 10.8332 5.00002V9.16669H14.9998C15.4601 9.16669 15.8332 9.53978 15.8332 10C15.8332 10.4603 15.4601 10.8334 14.9998 10.8334H10.8332V15C10.8332 15.4603 10.4601 15.8334 9.99984 15.8334C9.5396 15.8334 9.1665 15.4603 9.1665 15V10.8334H4.99984C4.5396 10.8334 4.1665 10.4603 4.1665 10C4.1665 9.53978 4.5396 9.16669 4.99984 9.16669H9.1665V5.00002C9.1665 4.53978 9.5396 4.16669 9.99984 4.16669Z" fill="#141318"/>
</svg>
