<svg width="16" height="16" viewBox="0 0 16 16" fill="none" xmlns="http://www.w3.org/2000/svg">
<g clip-path="url(#clip0_3101_4094)">
<path d="M7.99967 1.33331C4.31301 1.33331 1.33301 4.31331 1.33301 7.99998C1.33301 11.6866 4.31301 14.6666 7.99967 14.6666C11.6863 14.6666 14.6663 11.6866 14.6663 7.99998C14.6663 4.31331 11.6863 1.33331 7.99967 1.33331ZM10.8663 10.8666C10.6063 11.1266 10.1863 11.1266 9.92634 10.8666L7.99967 8.93998L6.07301 10.8666C5.81301 11.1266 5.39301 11.1266 5.13301 10.8666C4.87301 10.6066 4.87301 10.1866 5.13301 9.92665L7.05967 7.99998L5.13301 6.07331C4.87301 5.81331 4.87301 5.39331 5.13301 5.13331C5.39301 4.87331 5.81301 4.87331 6.07301 5.13331L7.99967 7.05998L9.92634 5.13331C10.1863 4.87331 10.6063 4.87331 10.8663 5.13331C11.1263 5.39331 11.1263 5.81331 10.8663 6.07331L8.93967 7.99998L10.8663 9.92665C11.1197 10.18 11.1197 10.6066 10.8663 10.8666Z" fill="#1C1C1C"/>
</g>
<defs>
<clipPath id="clip0_3101_4094">
<rect width="16" height="16" fill="white"/>
</clipPath>
</defs>
</svg>
