<svg width="24" height="24" viewBox="0 0 24 24" fill="none" xmlns="http://www.w3.org/2000/svg">
<path d="M21.389 9.87764C20.637 8.66781 19.6884 7.58713 18.5809 6.6785L20.9134 4.38696C21.0651 4.23261 21.1491 4.02588 21.1472 3.81129C21.1453 3.59671 21.0577 3.39144 20.9032 3.23971C20.7488 3.08797 20.5398 3.0019 20.3214 3.00003C20.103 2.99817 19.8926 3.08066 19.7355 3.22974L17.1989 5.72505C15.6265 4.80747 13.8288 4.32923 12 4.34195C6.84274 4.34195 3.90383 7.81035 2.61098 9.87764C2.21157 10.5123 2 11.2438 2 11.9899C2 12.7361 2.21157 13.4676 2.61098 14.1022C3.363 15.3121 4.31159 16.3928 5.4191 17.3014L3.08664 19.5929C3.00707 19.6684 2.94361 19.7587 2.89995 19.8586C2.8563 19.9584 2.83332 20.0658 2.83235 20.1745C2.83139 20.2832 2.85247 20.3909 2.89436 20.4915C2.93624 20.5921 2.9981 20.6835 3.07631 20.7603C3.15453 20.8371 3.24753 20.8979 3.34991 20.9391C3.45229 20.9802 3.56198 21.0009 3.67259 21C3.78319 20.999 3.8925 20.9764 3.99414 20.9336C4.09577 20.8907 4.18769 20.8283 4.26453 20.7502L6.80692 18.2524C8.3774 19.1698 10.1729 19.6489 12 19.6379C17.1573 19.6379 20.0962 16.1695 21.389 14.1022C21.7884 13.4676 22 12.7361 22 11.9899C22 11.2438 21.7884 10.5123 21.389 9.87764ZM4.03045 13.2454C3.79315 12.8681 3.66746 12.4334 3.66746 11.9899C3.66746 11.5465 3.79315 11.1118 4.03045 10.7345C5.14171 8.96184 7.65328 5.97876 12 5.97876C13.383 5.97115 14.7467 6.29862 15.9702 6.9322L14.2933 8.57965C13.4936 8.058 12.5347 7.82426 11.5795 7.91809C10.6243 8.01192 9.73156 8.42754 9.05276 9.09443C8.37396 9.76132 7.95091 10.6384 7.85541 11.5768C7.7599 12.5153 7.99782 13.4573 8.52879 14.243L6.6045 16.1335C5.58413 15.3231 4.7134 14.3461 4.03045 13.2454ZM14.4991 11.9899C14.4991 12.6411 14.2358 13.2656 13.7671 13.726C13.2984 14.1865 12.6628 14.4452 12 14.4452C11.6289 14.4437 11.2629 14.3598 10.9296 14.1996L14.2492 10.9383C14.4122 11.2658 14.4976 11.6254 14.4991 11.9899ZM9.50093 11.9899C9.50093 11.3388 9.76422 10.7143 10.2329 10.2538C10.7016 9.7934 11.3372 9.53473 12 9.53473C12.3711 9.53614 12.7371 9.62008 13.0704 9.78025L9.75083 13.0416C9.5878 12.7141 9.50236 12.3545 9.50093 11.9899ZM19.9695 13.2454C18.8583 15.018 16.3467 18.0011 12 18.0011C10.617 18.0087 9.25332 17.6813 8.0298 17.0477L9.70668 15.4002C10.5064 15.9219 11.4653 16.1556 12.4205 16.0618C13.3757 15.968 14.2684 15.5523 14.9472 14.8855C15.626 14.2186 16.0491 13.3415 16.1446 12.403C16.2401 11.4646 16.0022 10.5226 15.4712 9.73687L17.3955 7.84636C18.4159 8.65681 19.2866 9.63379 19.9695 10.7345C20.2068 11.1118 20.3325 11.5465 20.3325 11.9899C20.3325 12.4334 20.2068 12.8681 19.9695 13.2454Z" fill="#FCFCFC"/>
</svg>
